PathFileType	4	(X/Y/Z)	H:\MAC\Cortex8\Teaching\Biomec1_N_2\Trimmed_walk2.trc
DataRate	CameraRate	NumFrames	NumMarkers	Units	OrigDataRate	OrigDataStartFrame	OrigNumFrames
150.00	150.00	       5	28	mm	150.00	162	       184
Frame#	Time	R.ASIS			L.ASIS			R.PSIS			L.PSIS			L.Iliac.Crest			R.Iliac.Crest			R.GTR			R.Knee			R.HF			R.TT			R.Ankle			R.Heel			R.MT1			R.MT5			L.GTR			L.Knee			L.HF			L.TT			L.Ankle			L.Heel			L.MT1			L.MT5			R.Knee.Medial			R.Ankle.Medial			R.MT2			L.Knee.Medial			L.Ankle.Medial			L.MT2			V_Mid_ASIS			V_Mid_PSIS			V_Pelvis_Origin			V_R.Hip_JC			V_R.Knee_JC_Static			V_R.TT			V_R.Ankle_JC_Static			V_L.Hip_JC			V_Mid_Hip			V_R.MT2_Static			V_R.Knee.Medial			V_R.Ankle.Medial			V_R.TT			V_L.Knee_JC_Static			V_L.TT			V_L.Ankle_JC_Static			V_L.MT2_Static			V_R.Knee_JC			V_R.Ankle_JC			V_L.Knee_JC			V_L.Ankle_JC			V_R.TT_KJC_Static			V_L.TT_KJC_Static			V_R.TT_KJC			V_L.TT_KJC			V_R.MT2			V_L.MT2			
		X1	Y1	Z1	X2	Y2	Z2	X3	Y3	Z3	X4	Y4	Z4	X5	Y5	Z5	X6	Y6	Z6	X7	Y7	Z7	X8	Y8	Z8	X9	Y9	Z9	X10	Y10	Z10	X11	Y11	Z11	X12	Y12	Z12	X13	Y13	Z13	X14	Y14	Z14	X15	Y15	Z15	X16	Y16	Z16	X17	Y17	Z17	X18	Y18	Z18	X19	Y19	Z19	X20	Y20	Z20	X21	Y21	Z21	X22	Y22	Z22	X23	Y23	Z23	X24	Y24	Z24	X25	Y25	Z25	X26	Y26	Z26	X27	Y27	Z27	X28	Y28	Z28	

162	1.073	1711.29675	974.18134	-280.78812	1724.57166	970.63330	-535.67456	1511.13513	994.63348	-365.98276	1509.43591	984.94183	-443.31189	1632.48279	1032.77039	-582.53070	1637.82837	1026.69446	-247.54758	1621.73804	897.72626	-221.36694	1497.21204	498.10168	-283.41068	1491.94128	431.25629	-291.78082	1544.95557	410.52606	-345.60736	1376.96423	92.36416	-347.94742	1312.67053	67.26907	-398.69809	1536.07043	49.70299	-387.36957	1503.71875	47.84301	-304.34180	1674.09607	884.48248	-618.27643	1796.16943	507.55875	-595.56403	1831.78284	455.40204	-596.42828	1891.92896	468.36652	-541.22144	1951.13525	103.30781	-564.64850	1913.12317	48.05458	-504.16736	2108.59424	153.54160	-513.78351	2086.89893	130.72762	-600.62946	1513.06555	484.93887	-421.60968	1417.51660	95.71889	-432.88464	1532.02380	56.76081	-349.98639	1810.34521	492.08609	-453.19089	1979.71680	142.02855	-481.69705	2097.61426	157.69592	-549.82178																																																																																		
163	1.080	1719.21375	972.82648	-280.72519	1733.49377	969.46808	-535.62042	1518.98120	993.25323	-366.94574	1517.83533	983.45544	-444.23431	1641.43420	1031.58130	-582.83173	1645.63989	1025.33691	-247.76062	1629.19543	896.74329	-221.72380	1502.27344	498.06036	-283.83371	1496.40295	431.25076	-292.11594	1549.39417	409.78357	-345.82874	1377.51941	93.36572	-347.92148	1313.12537	68.84500	-398.66327	1535.98413	49.71786	-387.57294	1503.90198	47.75282	-304.30432	1683.26257	883.19904	-618.45642	1804.45251	506.11697	-595.83868	1840.32336	454.13803	-596.44214	1900.57068	468.29666	-541.39038	1966.46057	104.30614	-563.65686	1929.11511	48.61896	-503.19870	2122.89282	157.31993	-512.13739	2101.96240	133.84700	-599.04224	1518.49561	484.66953	-422.36484	1418.26685	96.46228	-432.76425	1532.07336	56.66570	-349.87830	1818.52197	490.58035	-453.22336	1993.98743	143.71306	-480.63837	2111.94165	161.19061	-548.02515																																																																																		
164	1.087	1727.37415	971.47809	-280.77335	1742.31335	968.32550	-535.73639	1527.26367	991.75214	-367.58389	1526.36145	982.15326	-445.05243	1650.33154	1030.38110	-583.23724	1653.52783	1023.96997	-248.03284	1636.85217	895.67432	-222.06418	1507.57605	498.06113	-284.29013	1501.03137	431.26950	-292.41495	1553.95020	409.09930	-346.06711	1378.14954	94.45444	-347.83093	1313.78162	70.47260	-398.67514	1536.12024	49.73113	-387.54169	1503.72925	48.03489	-304.31192	1692.52075	881.97723	-618.67450	1812.73901	504.68887	-596.03754	1848.92749	452.78378	-596.48907	1909.22131	468.04922	-541.45367	1980.77002	105.14994	-562.63269	1944.05225	48.91121	-502.31702	2136.23975	160.41936	-510.46552	2115.99146	136.57570	-597.45709	1524.47412	484.10120	-422.43018	1419.05103	97.32098	-432.59836	1532.11096	56.59917	-349.79428	1826.82129	489.36160	-453.21881	2007.49060	145.02464	-479.56232	2125.54639	164.07826	-546.72308																																																																																		
165	1.093	1735.55505	970.16663	-280.89478	1751.28528	967.21600	-535.92407	1535.89795	990.67267	-368.62521	1535.15967	980.85846	-445.73016	1659.30981	1029.20081	-583.69067	1661.67432	1022.62860	-248.35803	1644.60498	894.66602	-222.40761	1513.09753	498.05676	-284.69266	1505.83630	431.34756	-292.73868	1558.68933	408.45239	-346.17691	1378.85278	95.67154	-347.70337	1314.24963	72.44290	-398.51648	1536.19702	49.63430	-387.38293	1504.22278	47.78194	-304.12045	1701.91467	880.86823	-618.92285	1821.18677	503.27139	-596.22638	1857.47131	451.45071	-596.52606	1917.98108	467.70987	-541.50189	1994.07141	105.67367	-561.58032	1957.78320	49.03859	-501.33035	2148.65308	162.82874	-508.83966	2129.07837	138.65224	-595.89771	1530.43848	483.69388	-422.79309	1419.91650	98.28114	-432.40005	1532.15442	56.56644	-349.65826	1835.33362	488.39972	-453.20236	2019.99280	145.89870	-478.41248	2137.99805	166.33914	-544.85974																																																																																		
166	1.100	1743.79102	968.91876	-281.09665	1760.28955	966.12292	-536.18115	1544.53503	989.36456	-369.51657	1543.86694	979.57867	-446.63297	1668.28442	1028.05945	-584.22296	1669.77209	1021.25189	-248.72899	1652.42566	893.66736	-222.82735	1518.81604	498.04874	-285.08017	1510.85474	431.43564	-293.03226	1563.52502	407.77271	-346.22479	1379.65015	97.05832	-347.57217	1314.79883	74.57841	-398.33502	1536.37439	49.66080	-387.33777	1504.43860	47.39675	-303.78296	1711.48816	879.83600	-619.31207	1829.81287	501.87927	-596.31201	1866.34131	450.16165	-596.50616	1926.84583	467.26727	-541.53577	2006.31567	105.84836	-560.48553	1970.36816	48.96349	-500.29153	2160.28320	164.41615	-507.34067	2141.14746	139.91730	-594.48706	1536.56567	483.26495	-423.10916	1420.86047	99.37223	-432.18359	1531.47070	55.81486	-350.38623	1843.87769	487.55161	-453.23413	2031.63647	146.41193	-477.35498	2149.77148	167.79019	-543.61017																																																																																		
